<svg viewBox="0 0 70 70" fill="none" xmlns="http://www.w3.org/2000/svg">
<path d="M18.75 63.125C16.75 63.7917 14.7917 64.6042 12.875 65.5625C10.9167 64.3542 9.625 63.125 9 61.875C9.08333 61.625 9.20833 60.7708 9.375 59.3125C9.54167 57.8542 9.70833 56.1458 9.875 54.1875C10.0833 52.2292 10.25 50.2083 10.375 48.125C10.5 46.0417 10.5625 44.2708 10.5625 42.8125C12.5208 41.8958 15.5417 41.4375 19.625 41.4375C20.0833 41.4375 20.5417 41.4375 21 41.4375C21.4583 41.4375 21.9375 41.4583 22.4375 41.5C25.4375 51.25 29.5417 56.5417 34.75 57.375C36.875 57.0417 38.5 56.2708 39.625 55.0625C40.7917 53.8125 41.375 52.4167 41.375 50.875C41.375 49.75 41.0625 48.7083 40.4375 47.75C39.8125 46.75 38.9792 45.8333 37.9375 45C36.8958 44.1667 35.6667 43.3958 34.25 42.6875C32.875 41.9792 31.4167 41.2917 29.875 40.625C28.3333 39.9167 26.7708 39.25 25.1875 38.625C23.6042 37.9583 22.0833 37.2708 20.625 36.5625C19.0833 35.8542 17.625 35 16.25 34C14.875 32.9583 13.6667 31.7917 12.625 30.5C11.5833 29.1667 10.75 27.7083 10.125 26.125C9.54167 24.5417 9.25 22.8333 9.25 21C9.25 19.0417 9.58333 17 10.25 14.875C10.9167 12.75 12.0625 10.8125 13.6875 9.0625C15.3125 7.3125 17.5 5.875 20.25 4.75C23 3.58333 26.4583 3 30.625 3C35.25 3 38.6667 3.25 40.875 3.75L43.1875 3H47.4375C47.9792 6.54167 48.625 9.85417 49.375 12.9375C50.1667 16.0208 51.0417 18.8958 52 21.5625C50.2083 23.3542 48.0417 24.25 45.5 24.25C44.0833 22.5833 42.7708 21.0833 41.5625 19.75C40.3542 18.375 39.1875 17.1875 38.0625 16.1875C36.9792 15.1875 35.8958 14.375 34.8125 13.75C33.7708 13.125 32.6875 12.6875 31.5625 12.4375C28.8125 12.8958 27.4375 14.1458 27.4375 16.1875C27.4375 17.8125 28.1458 19.2292 29.5625 20.4375C30.9792 21.6458 32.75 22.75 34.875 23.75C37 24.75 39.3125 25.7083 41.8125 26.625C44.3542 27.5 46.75 28.4375 49 29.4375C50.625 30.1458 52.1458 31.0625 53.5625 32.1875C55.0208 33.3125 56.2917 34.625 57.375 36.125C58.4583 37.5833 59.3125 39.2292 59.9375 41.0625C60.5625 42.8542 60.875 44.7917 60.875 46.875C60.875 49.9583 60.0833 52.7292 58.5 55.1875C56.9583 57.6458 54.8958 59.7292 52.3125 61.4375C49.7708 63.1458 46.8542 64.4583 43.5625 65.375C40.2708 66.2917 36.9167 66.75 33.5 66.75C27.625 66.75 22.7083 65.5417 18.75 63.125ZM33.0625 64.1875C38.2708 64.1875 42.7292 62.6458 46.4375 59.5625C50.1458 56.4792 52 53.0208 52 49.1875C52 45.4375 50.8542 42.2083 48.5625 39.5C46.2708 36.75 43.5 34.625 40.25 33.125C37 31.625 33.7292 30.25 30.4375 29C27.1458 27.7083 24.3542 26.2083 22.0625 24.5C19.7708 22.7917 18.625 20.7917 18.625 18.5C18.625 15.5833 19.7083 13.375 21.875 11.875C24.0417 10.375 26.5833 9.625 29.5 9.625C32.5833 9.625 35.3333 10.5833 37.75 12.5C40.1667 14.4167 43.125 17.4792 46.625 21.6875C47.75 21.6875 48.5625 21.4167 49.0625 20.875C47.5208 16.4583 45.2292 12.8125 42.1875 9.9375C39.1875 7.02083 35.3333 5.5625 30.625 5.5625C23.9167 5.5625 19.1042 7.16667 16.1875 10.375C13.2708 13.5417 11.8125 17.0833 11.8125 21C11.8125 24.3333 12.9167 27.1875 15.125 29.5625C17.375 31.8958 20.0625 33.7083 23.1875 35C26.3542 36.25 29.5 37.5 32.625 38.75C35.75 40 38.4167 41.625 40.625 43.625C42.8333 45.625 43.9375 48.0417 43.9375 50.875C43.9375 53.25 42.9167 55.375 40.875 57.25C38.8333 59.125 35.9792 60.0625 32.3125 60.0625C27.8958 60.0625 24.4792 58.6667 22.0625 55.875C19.6875 53.0417 17.6875 49.1042 16.0625 44.0625C14.6042 44.0625 13.625 44.1875 13.125 44.4375C13.125 47.4375 12.9792 50.875 12.6875 54.75C12.3958 58.625 12.1042 60.9167 11.8125 61.625C12.1042 62.0417 12.5 62.4167 13 62.75C14.7083 61.5417 16.0208 60.2708 16.9375 58.9375C20.6042 60.9792 23.4583 62.3542 25.5 63.0625C27.5833 63.8125 30.1042 64.1875 33.0625 64.1875Z" fill="black"/>
</svg>
